STARTFONT 2.1
FONT -Bitstream-Terminal-Medium-R-Double Wide--25-180-100-100-C-300-DEC-DECtech
SIZE 18 100 100
FONTBOUNDINGBOX 30 25 0 -5

STARTPROPERTIES 28
CHARSET_REGISTRY "DEC"
CHARSET_ENCODING "DECtech"
CAP_HEIGHT 15
X_HEIGHT 12
AVERAGE_WIDTH 300
AVG_CAPITAL_WIDTH 300
AVG_LOWERCASE_WIDTH 300
FIGURE_WIDTH 300
SPACING "C"
FONTNAME_REGISTRY ""
FAMILY_NAME "Terminal"
FOUNDRY "Bitstream"
WEIGHT_NAME "Medium"
SETWIDTH_NAME "Double Wide"
SLANT "R"
ADD_STYLE_NAME ""
PIXEL_SIZE 25
POINT_SIZE 180
RESOLUTION_X 100
RESOLUTION_Y 100
CHARSET_COLLECTIONS "DEC-DECtech"
FULL_NAME "Terminal Double Wide"
COPYRIGHT "Copyright (c) 1988 Bitstream, Inc., Copyright 1991 Digital Equipment Corporation.  All Rights Reserved."
WEIGHT 10
QUAD_WIDTH 30
DEFAULT_CHAR 159
FONT_DESCENT 5
FONT_ASCENT 20
ENDPROPERTIES

CHARS 181

STARTCHAR space
ENCODING 32
SWIDTH 1131 0
DWIDTH 30 0
BBX 1 1 0 0
BITMAP
00
ENDCHAR

STARTCHAR exclam
ENCODING 33
SWIDTH 1131 0
DWIDTH 30 0
BBX 7 15 11 0
BITMAP
7C
7C
7C
7C
7C
7C
7C
7C
7C
00
00
7C
FE
FE
7C
ENDCHAR

STARTCHAR quotedbl
ENCODING 34
SWIDTH 1131 0
DWIDTH 30 0
BBX 16 8 7 9
BITMAP
F81F
F81F
F81F
F81F
F81F
F81F
F81F
F81F
ENDCHAR

STARTCHAR numbersign
ENCODING 35
SWIDTH 1131 0
DWIDTH 30 0
BBX 28 18 1 -3
BITMAP
03E07C00
03E07C00
03E07C00
03E07C00
03E07C00
03E07C00
FFFFFFF0
03E07C00
03E07C00
03E07C00
03E07C00
FFFFFFF0
03E07C00
03E07C00
03E07C00
03E07C00
03E07C00
03E07C00
ENDCHAR

STARTCHAR dollar
ENCODING 36
SWIDTH 1131 0
DWIDTH 30 0
BBX 20 21 5 -4
BITMAP
00F000
00F000
00F000
1FFBE0
7C0FE0
F807E0
F803E0
FC0000
7F8000
1FFF80
007FE0
0003E0
0001F0
F801F0
FC01E0
FE03E0
FBFF80
00F000
00F000
00F000
00F000
ENDCHAR

STARTCHAR percent
ENCODING 37
SWIDTH 1131 0
DWIDTH 30 0
BBX 26 15 2 0
BITMAP
1FE00000
38700000
F03C0000
F03C0700
F03C3F00
3870F800
1FE3C000
001E0000
00F1FE00
0FC38700
FF0F03C0
F00F03C0
000F03C0
00038700
0001FE00
ENDCHAR

STARTCHAR ampersand
ENCODING 38
SWIDTH 1131 0
DWIDTH 30 0
BBX 19 15 6 0
BITMAP
0FF780
3E0F80
3C0F80
3C0000
3C0000
0E0000
0F0000
7FCFE0
7BE780
F9F700
F8FF00
F83C00
F81F00
7C3F80
3FE7E0
ENDCHAR

STARTCHAR quoteright
ENCODING 39
SWIDTH 1131 0
DWIDTH 30 0
BBX 9 7 10 11
BITMAP
3F80
3F00
3E00
7E00
7C00
F000
E000
ENDCHAR

STARTCHAR parenleft
ENCODING 40
SWIDTH 1131 0
DWIDTH 30 0
BBX 9 21 11 -4
BITMAP
0180
0380
0700
1E00
3E00
3C00
7C00
7800
F800
F800
F800
F800
F800
7800
7C00
3C00
3E00
1E00
0700
0380
0180
ENDCHAR

STARTCHAR parenright
ENCODING 41
SWIDTH 1131 0
DWIDTH 30 0
BBX 9 21 10 -4
BITMAP
C000
E000
7000
3C00
3E00
1E00
1F00
0F00
0F80
0F80
0F80
0F80
0F80
0F00
1F00
1E00
3E00
3C00
7000
E000
C000
ENDCHAR

STARTCHAR asterisk
ENCODING 42
SWIDTH 1131 0
DWIDTH 30 0
BBX 20 11 5 2
BITMAP
00F000
00F000
F8F1F0
FCF3F0
3FFFC0
07FE00
03FC00
03FC00
1F0F80
1E0780
1E0780
ENDCHAR

STARTCHAR plus
ENCODING 43
SWIDTH 1131 0
DWIDTH 30 0
BBX 21 14 4 0
BITMAP
00F800
00F800
00F800
00F800
00F800
00F800
FFFFF8
FFFFF8
00F800
00F800
00F800
00F800
00F800
00F800
ENDCHAR

STARTCHAR comma
ENCODING 44
SWIDTH 1131 0
DWIDTH 30 0
BBX 9 8 10 -4
BITMAP
3F80
3F00
7F00
7E00
7C00
FC00
F000
E000
ENDCHAR

STARTCHAR minus
ENCODING 45
SWIDTH 1131 0
DWIDTH 30 0
BBX 22 2 4 6
BITMAP
FFFFFC
FFFFFC
ENDCHAR

STARTCHAR period
ENCODING 46
SWIDTH 1131 0
DWIDTH 30 0
BBX 9 4 10 0
BITMAP
7F00
FF80
FF80
7F00
ENDCHAR

STARTCHAR slash
ENCODING 47
SWIDTH 1131 0
DWIDTH 30 0
BBX 22 20 4 -3
BITMAP
00001C
00003C
0000F8
0001F0
0001E0
0003C0
000700
000F00
003E00
003C00
007800
00F000
01C000
03C000
0F8000
0F0000
1E0000
3E0000
7C0000
F00000
ENDCHAR

STARTCHAR zero
ENCODING 48
SWIDTH 1131 0
DWIDTH 30 0
BBX 20 15 5 0
BITMAP
03FC00
1F0F80
3E07C0
7C03E0
7C03E0
F801F0
F801F0
F801F0
F801F0
F801F0
7C03E0
7C03E0
3E07C0
1F0F80
03FC00
ENDCHAR

STARTCHAR one
ENCODING 49
SWIDTH 1131 0
DWIDTH 30 0
BBX 20 15 5 0
BITMAP
01F800
7FF800
00F800
00F800
00F800
00F800
00F800
00F800
00F800
00F800
00F800
00F800
00F800
00F800
FFFFF0
ENDCHAR

STARTCHAR two
ENCODING 50
SWIDTH 1131 0
DWIDTH 30 0
BBX 20 15 5 0
BITMAP
3FFE00
FC07C0
F803E0
0003E0
0003E0
0003E0
0007C0
000F80
007C00
01F000
03E000
1F0000
7C01F0
F801F0
FFFFF0
ENDCHAR

STARTCHAR three
ENCODING 51
SWIDTH 1131 0
DWIDTH 30 0
BBX 19 15 6 0
BITMAP
3FFF00
FC07C0
FC03E0
0003E0
0003E0
0003E0
0007C0
07FF00
0007C0
0003E0
0003E0
0003E0
FC03E0
FC07C0
3FFF00
ENDCHAR

STARTCHAR four
ENCODING 52
SWIDTH 1131 0
DWIDTH 30 0
BBX 21 15 4 0
BITMAP
007F00
00FF00
018F00
030F00
0E0F00
1C0F00
300F00
600F00
C00F00
FFFFF8
FFFFF8
000F00
000F00
000F00
01FFF8
ENDCHAR

STARTCHAR five
ENCODING 53
SWIDTH 1131 0
DWIDTH 30 0
BBX 20 15 5 0
BITMAP
7FFFC0
7C0000
7C0000
7C0000
7C0000
7C0000
7FFF80
7C07E0
0003F0
0003F0
0003F0
0003F0
FE03E0
FE07C0
3FFE00
ENDCHAR

STARTCHAR six
ENCODING 54
SWIDTH 1131 0
DWIDTH 30 0
BBX 19 15 6 0
BITMAP
00FF80
03C000
0E0000
3C0000
7C0000
780000
F9FF00
FE07C0
FC03C0
F803E0
F803E0
F803E0
7C03C0
7E07C0
0FFF00
ENDCHAR

STARTCHAR seven
ENCODING 55
SWIDTH 1131 0
DWIDTH 30 0
BBX 20 15 6 0
BITMAP
FFFFF0
F803F0
F803E0
0007C0
0007C0
000F80
000F80
001F00
003F00
003C00
00F800
01F800
01F000
03F000
07E000
ENDCHAR

STARTCHAR eight
ENCODING 56
SWIDTH 1131 0
DWIDTH 30 0
BBX 18 15 6 0
BITMAP
0FFC00
7C0F80
F807C0
F807C0
F807C0
F807C0
7C0F80
0FFC00
7C0F80
F807C0
F807C0
F807C0
F807C0
7C0F80
0FFC00
ENDCHAR

STARTCHAR nine
ENCODING 57
SWIDTH 1131 0
DWIDTH 30 0
BBX 18 15 6 0
BITMAP
0FFC00
7C0F80
F80780
F807C0
F807C0
F807C0
F807C0
7C1FC0
0FE7C0
0007C0
000F80
000F80
001F00
00F800
7FE000
ENDCHAR

STARTCHAR colon
ENCODING 58
SWIDTH 1131 0
DWIDTH 30 0
BBX 10 12 10 0
BITMAP
7F80
FFC0
FFC0
7F80
0000
0000
0000
0000
7F80
FFC0
FFC0
7F80
ENDCHAR

STARTCHAR semicolon
ENCODING 59
SWIDTH 1131 0
DWIDTH 30 0
BBX 12 16 8 -4
BITMAP
1FE0
3FF0
3FF0
1FE0
0000
0000
0000
0000
1FC0
1F80
3F80
3F00
3C00
FC00
F800
F000
ENDCHAR

STARTCHAR less
ENCODING 60
SWIDTH 1131 0
DWIDTH 30 0
BBX 24 11 4 2
BITMAP
00001F
0007FF
007FE0
0FFC00
3F8000
F00000
3F8000
0FFC00
007FE0
0007FF
00003F
ENDCHAR

STARTCHAR equal
ENCODING 61
SWIDTH 1131 0
DWIDTH 30 0
BBX 22 8 4 3
BITMAP
FFFFFC
FFFFFC
000000
000000
000000
000000
FFFFFC
FFFFFC
ENDCHAR

STARTCHAR greater
ENCODING 62
SWIDTH 1131 0
DWIDTH 30 0
BBX 24 11 2 2
BITMAP
F80000
FFE000
07FE00
003FF0
0001FC
00000F
0001FC
003FF0
07FE00
FFE000
FC0000
ENDCHAR

STARTCHAR question
ENCODING 63
SWIDTH 1131 0
DWIDTH 30 0
BBX 22 15 4 0
BITMAP
3FFFF0
FC01F8
FC00FC
0000FC
0001F8
0007F0
007F00
01F800
01F000
000000
000000
03F000
0FF800
0FF800
03F000
ENDCHAR

STARTCHAR at
ENCODING 64
SWIDTH 1131 0
DWIDTH 30 0
BBX 28 19 1 -2
BITMAP
01FFE000
07FFFC00
1E003E00
1E001F00
7C000700
7C000780
F80FFF80
F83F0780
F83E0780
F87E0780
F87E0780
F83E0780
F83F0780
7C0FFFF0
7C000000
1E000000
1E000000
07C03F00
01FFFF00
ENDCHAR

STARTCHAR A
ENCODING 65
SWIDTH 1131 0
DWIDTH 30 0
BBX 30 15 0 0
BITMAP
0007C000
000FE000
000FF000
001CF000
00387C00
00383E00
00F03E00
01E01F00
03E01F80
03C00F80
07FFFFC0
07000FC0
0E0003F0
3E0003F0
FFF01FFC
ENDCHAR

STARTCHAR B
ENCODING 66
SWIDTH 1131 0
DWIDTH 30 0
BBX 26 15 2 0
BITMAP
FFFFF800
0F807C00
0F803E00
0F803E00
0F803E00
0F803C00
0F807800
0FFFFE00
0F803F00
0F8007C0
0F8007C0
0F8007C0
0F800FC0
0F807F00
FFFFFC00
ENDCHAR

STARTCHAR C
ENCODING 67
SWIDTH 1131 0
DWIDTH 30 0
BBX 26 15 2 0
BITMAP
00FFC3C0
0FC0FBC0
1F003FC0
3F0007C0
3C0003C0
F80003C0
F8000000
F8000000
F8000000
F8000000
3C000000
3F000000
1F000FC0
0FC03F00
00FFFC00
ENDCHAR

STARTCHAR D
ENCODING 68
SWIDTH 1131 0
DWIDTH 30 0
BBX 26 15 2 0
BITMAP
FFFFF000
0F807C00
0F800F00
0F800F00
0F8007C0
0F8007C0
0F8007C0
0F8007C0
0F8007C0
0F8007C0
0F8007C0
0F800F00
0F800F00
0F807C00
FFFFF000
ENDCHAR

STARTCHAR E
ENCODING 69
SWIDTH 1131 0
DWIDTH 30 0
BBX 25 15 1 0
BITMAP
FFFFFF80
03E00180
03E00180
03E00180
03E06000
03E06000
03E06000
03FFE000
03E06000
03E06000
03E00180
03E00180
03E00180
03E00180
FFFFFF80
ENDCHAR

STARTCHAR F
ENCODING 70
SWIDTH 1131 0
DWIDTH 30 0
BBX 26 15 2 0
BITMAP
FFFFFFC0
03E001C0
03E001C0
03E001C0
03E07000
03E07000
03E07000
03FFF000
03E07000
03E07000
03E00000
03E00000
03E00000
03E00000
FFFF8000
ENDCHAR

STARTCHAR G
ENCODING 71
SWIDTH 1131 0
DWIDTH 30 0
BBX 27 15 2 0
BITMAP
03FF8E00
0F81FE00
3C003E00
3C000E00
F8000E00
F8000E00
F8000000
F8000000
F8000000
F803FFE0
FC003E00
3C003E00
3F003E00
0FC07E00
03FFF800
ENDCHAR

STARTCHAR H
ENCODING 72
SWIDTH 1131 0
DWIDTH 30 0
BBX 28 15 1 0
BITMAP
FFF0FFF0
0F801F00
0F801F00
0F801F00
0F801F00
0F801F00
0F801F00
0FFFFF00
0F801F00
0F801F00
0F801F00
0F801F00
0F801F00
0F801F00
FFF0FFF0
ENDCHAR

STARTCHAR I
ENCODING 73
SWIDTH 1131 0
DWIDTH 30 0
BBX 19 15 5 0
BITMAP
FFFFE0
01F000
01F000
01F000
01F000
01F000
01F000
01F000
01F000
01F000
01F000
01F000
01F000
01F000
FFFFE0
ENDCHAR

STARTCHAR J
ENCODING 74
SWIDTH 1131 0
DWIDTH 30 0
BBX 24 15 4 0
BITMAP
0FFFFF
0007C0
0007C0
0007C0
0007C0
0007C0
0007C0
0007C0
C007C0
C007C0
C007C0
C007C0
E00700
F00F00
3FFC00
ENDCHAR

STARTCHAR K
ENCODING 75
SWIDTH 1131 0
DWIDTH 30 0
BBX 26 15 2 0
BITMAP
FFF1FFC0
0F807E00
0F807800
0F81F000
0F838000
0F8E0000
0FBE0000
0FFF0000
0F9F8000
0F83C000
0F81F000
0F81F800
0F80FC00
0F807E00
FFF07FC0
ENDCHAR

STARTCHAR L
ENCODING 76
SWIDTH 1131 0
DWIDTH 30 0
BBX 26 15 2 0
BITMAP
FFFF8000
03E00000
03E00000
03E00000
03E00000
03E00000
03E00000
03E00000
03E00000
03E00000
03E001C0
03E001C0
03E001C0
03E001C0
FFFFFFC0
ENDCHAR

STARTCHAR M
ENCODING 77
SWIDTH 1131 0
DWIDTH 30 0
BBX 30 15 0 0
BITMAP
FFC00FFC
3FC00FF0
3FE01FF0
3EE01DF0
3E3031F0
3E3031F0
3E1861F0
3E1861F0
3E0CC1F0
3E0FC1F0
3E0781F0
3E0781F0
3E0001F0
3E0001F0
FFE01FFC
ENDCHAR

STARTCHAR N
ENCODING 78
SWIDTH 1131 0
DWIDTH 30 0
BBX 28 15 1 0
BITMAP
FFC0FFF0
0FE01F00
0FE01F00
0FB01F00
0F981F00
0F8E1F00
0F8E1F00
0F871F00
0F819F00
0F819F00
0F80DF00
0F807F00
0F803F00
0F803F00
FFF81F00
ENDCHAR

STARTCHAR O
ENCODING 79
SWIDTH 1131 0
DWIDTH 30 0
BBX 26 15 2 0
BITMAP
03FFF000
0F807C00
3C000F00
3C000F00
F80007C0
F80007C0
F80007C0
F80007C0
F80007C0
F80007C0
F80007C0
3C000F00
3C000F00
0F807C00
03FFF000
ENDCHAR

STARTCHAR P
ENCODING 80
SWIDTH 1131 0
DWIDTH 30 0
BBX 26 15 2 0
BITMAP
FFFFFE00
03E00F00
03E007C0
03E007C0
03E007C0
03E007C0
03E007C0
03E00F00
03FFFE00
03E00000
03E00000
03E00000
03E00000
03E00000
FFFFC000
ENDCHAR

STARTCHAR Q
ENCODING 81
SWIDTH 1131 0
DWIDTH 30 0
BBX 27 20 2 -5
BITMAP
03FFC000
0F80F800
3C003E00
3C003E00
F8000F00
F8000F00
F8000F00
F8000F00
F8000F00
F8000F00
F8000F00
3C003E00
3C003E00
0F80F800
03FFC000
00F00000
00C00000
00FF00E0
07FFFFE0
07C1FFC0
ENDCHAR

STARTCHAR R
ENCODING 82
SWIDTH 1131 0
DWIDTH 30 0
BBX 28 15 1 0
BITMAP
FFFFFC00
0F803F00
0F800780
0F800780
0F800780
0F801F00
0F807E00
0FFFF800
0F80FC00
0F807C00
0F803E00
0F803F00
0F801F00
0F801F80
FFE007F0
ENDCHAR

STARTCHAR S
ENCODING 83
SWIDTH 1131 0
DWIDTH 30 0
BBX 21 15 5 0
BITMAP
1FFDF0
7E07F0
FC03F0
F801F0
F80000
FC0000
7FF800
1FFFC0
001FF0
0001F8
F80078
F80078
FC01F8
FE07F0
E7FFC0
ENDCHAR

STARTCHAR T
ENCODING 84
SWIDTH 1131 0
DWIDTH 30 0
BBX 27 15 1 0
BITMAP
FFFFFFE0
F01F01E0
F01F01E0
F01F01E0
F01F01E0
001F0000
001F0000
001F0000
001F0000
001F0000
001F0000
001F0000
001F0000
001F0000
03FFF800
ENDCHAR

STARTCHAR U
ENCODING 85
SWIDTH 1131 0
DWIDTH 30 0
BBX 28 15 1 0
BITMAP
FFF0FFF0
0F801F00
0F801F00
0F801F00
0F801F00
0F801F00
0F801F00
0F801F00
0F801F00
0F801F00
0F801F00
0F801F00
0F801F00
07C03E00
01FFFC00
ENDCHAR

STARTCHAR V
ENCODING 86
SWIDTH 1131 0
DWIDTH 30 0
BBX 30 15 0 0
BITMAP
FFE01FFC
3F0000F0
0F0001C0
0FC001C0
07C00380
03E00F00
01E00F00
01F01E00
00F83C00
00383C00
003C7000
001F6000
000FE000
000FC000
00078000
ENDCHAR

STARTCHAR W
ENCODING 87
SWIDTH 1131 0
DWIDTH 30 0
BBX 30 15 0 0
BITMAP
FFF03FFC
0F0001F0
0F0001F0
0F0001F0
0F0381F0
0F0381F0
0F07C1F0
070FC1C0
070CE1C0
071C71C0
073871C0
07303DC0
03E01F80
03E01F80
03C00F80
ENDCHAR

STARTCHAR X
ENCODING 88
SWIDTH 1131 0
DWIDTH 30 0
BBX 28 15 1 0
BITMAP
FFF87FE0
0FE01E00
03F03C00
01F87800
007EE000
003FC000
001F8000
001FC000
003FE000
0079F800
01F0FC00
03E07E00
07C03F00
0F801F80
FFE03FF0
ENDCHAR

STARTCHAR Y
ENCODING 89
SWIDTH 1131 0
DWIDTH 30 0
BBX 28 15 0 0
BITMAP
FFF03FF0
0FC00F80
07E00F00
03F01E00
01F83C00
00FC7000
003FE000
001FC000
000F8000
000F8000
000F8000
000F8000
000F8000
000F8000
01FFFC00
ENDCHAR

STARTCHAR Z
ENCODING 90
SWIDTH 1131 0
DWIDTH 30 0
BBX 21 15 5 0
BITMAP
FFFFF0
C003F0
C007E0
C00FC0
001F80
007E00
00FC00
01F800
03F000
07E000
1F8000
3F0018
7E0018
FC0018
FFFFF8
ENDCHAR

STARTCHAR bracketleft
ENCODING 91
SWIDTH 1131 0
DWIDTH 30 0
BBX 10 20 10 -3
BITMAP
FFC0
F000
F000
F000
F000
F000
F000
F000
F000
F000
F000
F000
F000
F000
F000
F000
F000
F000
F000
FFC0
ENDCHAR

STARTCHAR backslash
ENCODING 92
SWIDTH 1131 0
DWIDTH 30 0
BBX 22 20 4 -3
BITMAP
E00000
F00000
7C0000
3E0000
1E0000
0F0000
038000
03C000
01F000
00F000
007800
003C00
000E00
000F00
0007C0
0003C0
0001E0
0001F0
0000F8
00003C
ENDCHAR

STARTCHAR bracketright
ENCODING 93
SWIDTH 1131 0
DWIDTH 30 0
BBX 10 20 10 -3
BITMAP
FFC0
03C0
03C0
03C0
03C0
03C0
03C0
03C0
03C0
03C0
03C0
03C0
03C0
03C0
03C0
03C0
03C0
03C0
03C0
FFC0
ENDCHAR

STARTCHAR asciicircum
ENCODING 94
SWIDTH 1131 0
DWIDTH 30 0
BBX 19 6 6 5
BITMAP
01F000
07FC00
0FFF00
3E0F80
F803E0
F000E0
ENDCHAR

STARTCHAR ldblank
ENCODING 95
SWIDTH 1131 0
DWIDTH 30 0
BBX 1 1 0 0
BITMAP
00
ENDCHAR

STARTCHAR diamond
ENCODING 96
SWIDTH 1131 0
DWIDTH 30 0
BBX 21 17 4 -1
BITMAP
007000
00F800
01FC00
03FE00
0FFF00
1FFFC0
3FFFE0
7FFFF0
FFFFF8
7FFFF0
3FFFE0
1FFFC0
0FFF00
03FE00
01FC00
00F800
007000
ENDCHAR

STARTCHAR checkerboard
ENCODING 97
SWIDTH 1131 0
DWIDTH 30 0
BBX 30 25 0 -5
BITMAP
AAAAAAA8
55555554
AAAAAAA8
55555554
AAAAAAA8
55555554
AAAAAAA8
55555554
AAAAAAA8
55555554
AAAAAAA8
55555554
AAAAAAA8
55555554
AAAAAAA8
55555554
AAAAAAA8
55555554
AAAAAAA8
55555554
AAAAAAA8
55555554
AAAAAAA8
55555554
AAAAAAA8
ENDCHAR

STARTCHAR HT
ENCODING 98
SWIDTH 1131 0
DWIDTH 30 0
BBX 27 18 2 -2
BITMAP
F81F0000
F81F0000
F81F0000
F81F0000
FFFF0000
F81F0000
F81F0000
F81F0000
F81F0000
00000000
0000FFE0
00000E00
00000E00
00000E00
00000E00
00000E00
00000E00
00000E00
ENDCHAR

STARTCHAR FF
ENCODING 99
SWIDTH 1131 0
DWIDTH 30 0
BBX 26 18 2 -2
BITMAP
FFFC0000
F8000000
F8000000
F8000000
FFE00000
F8000000
F8000000
F8000000
F8000000
0003FFC0
0003C000
0003C000
0003C000
0003FF00
0003C000
0003C000
0003C000
0003C000
ENDCHAR

STARTCHAR CR
ENCODING 100
SWIDTH 1131 0
DWIDTH 30 0
BBX 27 18 1 -2
BITMAP
1FF00000
7C7E0000
F83E0000
F8000000
F8000000
F8000000
F83E0000
7C7E0000
1FF00000
00000000
0007FF80
0007C1E0
0007C1E0
0007C1E0
0007FF00
0007C780
0007C3E0
0007C1E0
ENDCHAR

STARTCHAR LF
ENCODING 101
SWIDTH 1131 0
DWIDTH 30 0
BBX 26 18 2 -1
BITMAP
F8000000
F8000000
F8000000
F8000000
F8000000
F8000000
F8000000
F8000000
FFFC0000
00000000
0003FFC0
0003C000
0003C000
0003C000
0003FF00
0003C000
0003C000
0003C000
ENDCHAR

STARTCHAR degree
ENCODING 102
SWIDTH 1131 0
DWIDTH 30 0
BBX 16 8 7 10
BITMAP
1FF8
781E
F00F
F00F
F00F
F00F
781E
1FF8
ENDCHAR

STARTCHAR plusminus
ENCODING 103
SWIDTH 1131 0
DWIDTH 30 0
BBX 22 15 4 0
BITMAP
00FC00
00FC00
00FC00
00FC00
00FC00
FFFFFC
FFFFFC
00FC00
00FC00
00FC00
00FC00
00FC00
000000
FFFFFC
FFFFFC
ENDCHAR

STARTCHAR NL
ENCODING 104
SWIDTH 1131 0
DWIDTH 30 0
BBX 27 18 2 -2
BITMAP
FC3E0000
FC3E0000
FF3E0000
FBBE0000
FBBE0000
F8FE0000
F87E0000
F83E0000
F83E0000
00000000
0000F800
0000F800
0000F800
0000F800
0000F800
0000F800
0000F800
0000FFE0
ENDCHAR

STARTCHAR VT
ENCODING 105
SWIDTH 1131 0
DWIDTH 30 0
BBX 28 18 1 -2
BITMAP
F80F8000
F80F8000
F80F8000
780F0000
7C1F0000
1C1E0000
1E3E0000
07F00000
03E00000
00000000
0000FFF0
00001F00
00001F00
00001F00
00001F00
00001F00
00001F00
00001F00
ENDCHAR

STARTCHAR ldcornsqlr
ENCODING 106
SWIDTH 1131 0
DWIDTH 30 0
BBX 17 14 0 6
BITMAP
000F80
000F80
000F80
000F80
000F80
000F80
000F80
000F80
000F80
000F80
000F80
000F80
FFFF80
FFFF80
ENDCHAR

STARTCHAR ldcornsqur
ENCODING 107
SWIDTH 1131 0
DWIDTH 30 0
BBX 17 13 0 -5
BITMAP
FFFF80
FFFF80
000F80
000F80
000F80
000F80
000F80
000F80
000F80
000F80
000F80
000F80
000F80
ENDCHAR

STARTCHAR ldcornsqul
ENCODING 108
SWIDTH 1131 0
DWIDTH 30 0
BBX 18 13 12 -5
BITMAP
FFFFC0
FFFFC0
F80000
F80000
F80000
F80000
F80000
F80000
F80000
F80000
F80000
F80000
F80000
ENDCHAR

STARTCHAR ldcornsqll
ENCODING 109
SWIDTH 1131 0
DWIDTH 30 0
BBX 18 14 12 6
BITMAP
F80000
F80000
F80000
F80000
F80000
F80000
F80000
F80000
F80000
F80000
F80000
F80000
FFFFC0
FFFFC0
ENDCHAR

STARTCHAR ldcross
ENCODING 110
SWIDTH 1131 0
DWIDTH 30 0
BBX 30 25 0 -5
BITMAP
000F8000
000F8000
000F8000
000F8000
000F8000
000F8000
000F8000
000F8000
000F8000
000F8000
000F8000
000F8000
FFFFFFFC
FFFFFFFC
000F8000
000F8000
000F8000
000F8000
000F8000
000F8000
000F8000
000F8000
000F8000
000F8000
000F8000
ENDCHAR

STARTCHAR ldscan1
ENCODING 111
SWIDTH 1131 0
DWIDTH 30 0
BBX 30 2 0 16
BITMAP
FFFFFFFC
FFFFFFFC
ENDCHAR

STARTCHAR ldscan3
ENCODING 112
SWIDTH 1131 0
DWIDTH 30 0
BBX 30 2 0 10
BITMAP
FFFFFFFC
FFFFFFFC
ENDCHAR

STARTCHAR ldhorizontal
ENCODING 113
SWIDTH 1131 0
DWIDTH 30 0
BBX 30 2 0 6
BITMAP
FFFFFFFC
FFFFFFFC
ENDCHAR

STARTCHAR ldscan7
ENCODING 114
SWIDTH 1131 0
DWIDTH 30 0
BBX 30 2 0 -1
BITMAP
FFFFFFFC
FFFFFFFC
ENDCHAR

STARTCHAR ldscan9
ENCODING 115
SWIDTH 1131 0
DWIDTH 30 0
BBX 30 2 0 -5
BITMAP
FFFFFFFC
FFFFFFFC
ENDCHAR

STARTCHAR ldteelft
ENCODING 116
SWIDTH 1131 0
DWIDTH 30 0
BBX 18 25 12 -5
BITMAP
F80000
F80000
F80000
F80000
F80000
F80000
F80000
F80000
F80000
F80000
F80000
F80000
FFFFC0
FFFFC0
F80000
F80000
F80000
F80000
F80000
F80000
F80000
F80000
F80000
F80000
F80000
ENDCHAR

STARTCHAR ldteert
ENCODING 117
SWIDTH 1131 0
DWIDTH 30 0
BBX 17 25 0 -5
BITMAP
000F80
000F80
000F80
000F80
000F80
000F80
000F80
000F80
000F80
000F80
000F80
000F80
FFFF80
FFFF80
000F80
000F80
000F80
000F80
000F80
000F80
000F80
000F80
000F80
000F80
000F80
ENDCHAR

STARTCHAR ldteebt
ENCODING 118
SWIDTH 1131 0
DWIDTH 30 0
BBX 30 14 0 6
BITMAP
000F8000
000F8000
000F8000
000F8000
000F8000
000F8000
000F8000
000F8000
000F8000
000F8000
000F8000
000F8000
FFFFFFFC
FFFFFFFC
ENDCHAR

STARTCHAR ldteetp
ENCODING 119
SWIDTH 1131 0
DWIDTH 30 0
BBX 30 13 0 -5
BITMAP
FFFFFFFC
FFFFFFFC
000F8000
000F8000
000F8000
000F8000
000F8000
000F8000
000F8000
000F8000
000F8000
000F8000
000F8000
ENDCHAR

STARTCHAR ldvertical
ENCODING 120
SWIDTH 1131 0
DWIDTH 30 0
BBX 5 25 12 -5
BITMAP
F8
F8
F8
F8
F8
F8
F8
F8
F8
F8
F8
F8
F8
F8
F8
F8
F8
F8
F8
F8
F8
F8
F8
F8
F8
ENDCHAR

STARTCHAR lessequal
ENCODING 121
SWIDTH 1131 0
DWIDTH 30 0
BBX 26 14 2 0
BITMAP
0000FFC0
000FFFC0
007F8000
07F00000
FF800000
FFF00000
07FF8000
003FFFC0
0000FFC0
00000000
00000000
00000000
FFFFFFC0
FFFFFFC0
ENDCHAR

STARTCHAR greaterequal
ENCODING 122
SWIDTH 1131 0
DWIDTH 30 0
BBX 26 14 2 0
BITMAP
FFC00000
FFFC0000
007F8000
0003F800
00007FC0
0003FFC0
007FF800
FFFF0000
FFC00000
00000000
00000000
00000000
FFFFFFC0
FFFFFFC0
ENDCHAR

STARTCHAR pi
ENCODING 123
SWIDTH 1131 0
DWIDTH 30 0
BBX 26 12 2 0
BITMAP
FFFFFFC0
0F80F800
0F80F800
0F00F800
1F01F000
1F01F000
1C01F000
3C01C000
3C03C000
3803C000
F803C000
F801FC00
ENDCHAR

STARTCHAR notequal
ENCODING 124
SWIDTH 1131 0
DWIDTH 30 0
BBX 22 12 4 1
BITMAP
0001C0
0003C0
FFFFFC
FFFFFC
003C00
003C00
00F000
00F000
FFFFFC
FFFFFC
0F0000
0E0000
ENDCHAR

STARTCHAR sterling
ENCODING 125
SWIDTH 1131 0
DWIDTH 30 0
BBX 22 15 4 0
BITMAP
01FFF8
0FF03C
0F801C
1F001C
1F0000
0F8000
0FC000
7FFFE0
03C000
03C000
038000
0F0000
FFFC1C
FFFE3C
F00FF8
ENDCHAR

STARTCHAR periodcentered
ENCODING 126
SWIDTH 1131 0
DWIDTH 30 0
BBX 9 4 10 5
BITMAP
7F00
FF80
FF80
7F00
ENDCHAR

STARTCHAR Error
ENCODING 159
SWIDTH 1131 0
DWIDTH 30 0
BBX 30 25 0 -5
BITMAP
07FFFFC0
3FFFFFF8
7FFFFFFC
FFF03FFC
FFE01FFC
FFC00FFC
FFC00FFC
FFC00FFC
FFE00000
FFF00000
FFFF0000
7FFFC000
3FFFE000
07FFF000
00FFF000
001FF000
001FF000
001FF000
00000000
00000000
000FE000
001FF000
001FF000
001FF000
000FE000
ENDCHAR

STARTCHAR ldradicalbt
ENCODING 161
SWIDTH 1131 0
DWIDTH 30 0
BBX 13 17 5 3
BITMAP
00F8
00F8
00F8
00F8
00F8
00F8
00F8
00F8
60F8
F8F8
FCF8
7CF8
3EF8
1FF8
07F8
03F8
01F8
ENDCHAR

STARTCHAR ldradicaltp
ENCODING 162
SWIDTH 1131 0
DWIDTH 30 0
BBX 17 13 13 -5
BITMAP
FFFF80
FFFF80
F80000
F80000
F80000
F80000
F80000
F80000
F80000
F80000
F80000
F80000
F80000
ENDCHAR

STARTCHAR ldhorizontal
ENCODING 163
SWIDTH 1131 0
DWIDTH 30 0
BBX 30 2 0 6
BITMAP
FFFFFFFC
FFFFFFFC
ENDCHAR

STARTCHAR ldintegraltp
ENCODING 164
SWIDTH 1131 0
DWIDTH 30 0
BBX 13 23 13 -5
BITMAP
0FF8
7E00
7C00
FC00
F800
F800
F800
F800
F800
F800
F800
F800
F800
F800
F800
F800
F800
F800
F800
F800
F800
F800
F800
ENDCHAR

STARTCHAR ldintegralbt
ENCODING 165
SWIDTH 1131 0
DWIDTH 30 0
BBX 13 24 5 -4
BITMAP
00F8
00F8
00F8
00F8
00F8
00F8
00F8
00F8
00F8
00F8
00F8
00F8
00F8
00F8
00F8
00F8
00F8
00F8
00F8
00F8
01F8
01F0
03F0
FF80
ENDCHAR

STARTCHAR ldvertical
ENCODING 166
SWIDTH 1131 0
DWIDTH 30 0
BBX 5 25 13 -5
BITMAP
F8
F8
F8
F8
F8
F8
F8
F8
F8
F8
F8
F8
F8
F8
F8
F8
F8
F8
F8
F8
F8
F8
F8
F8
F8
ENDCHAR

STARTCHAR ldbracketlfttp
ENCODING 167
SWIDTH 1131 0
DWIDTH 30 0
BBX 11 23 13 -5
BITMAP
FFE0
F800
F800
F800
F800
F800
F800
F800
F800
F800
F800
F800
F800
F800
F800
F800
F800
F800
F800
F800
F800
F800
F800
ENDCHAR

STARTCHAR ldbracketlftbt
ENCODING 168
SWIDTH 1131 0
DWIDTH 30 0
BBX 11 24 13 -4
BITMAP
F800
F800
F800
F800
F800
F800
F800
F800
F800
F800
F800
F800
F800
F800
F800
F800
F800
F800
F800
F800
F800
F800
F800
FFE0
ENDCHAR

STARTCHAR ldbracketrttp
ENCODING 169
SWIDTH 1131 0
DWIDTH 30 0
BBX 11 23 7 -5
BITMAP
FFE0
03E0
03E0
03E0
03E0
03E0
03E0
03E0
03E0
03E0
03E0
03E0
03E0
03E0
03E0
03E0
03E0
03E0
03E0
03E0
03E0
03E0
03E0
ENDCHAR

STARTCHAR ldbracketrtbt
ENCODING 170
SWIDTH 1131 0
DWIDTH 30 0
BBX 11 24 7 -4
BITMAP
03E0
03E0
03E0
03E0
03E0
03E0
03E0
03E0
03E0
03E0
03E0
03E0
03E0
03E0
03E0
03E0
03E0
03E0
03E0
03E0
03E0
03E0
03E0
FFE0
ENDCHAR

STARTCHAR ldbracelfttp
ENCODING 171
SWIDTH 1131 0
DWIDTH 30 0
BBX 11 23 13 -5
BITMAP
07E0
1E00
1C00
7C00
7800
F800
F800
F800
F800
F800
F800
F800
F800
F800
F800
F800
F800
F800
F800
F800
F800
F800
F800
ENDCHAR

STARTCHAR ldbracelftbt
ENCODING 172
SWIDTH 1131 0
DWIDTH 30 0
BBX 11 24 13 -4
BITMAP
F800
F800
F800
F800
F800
F800
F800
F800
F800
F800
F800
F800
F800
F800
F800
F800
F800
F800
F800
7800
7C00
1C00
1E00
07E0
ENDCHAR

STARTCHAR ldbracerttp
ENCODING 173
SWIDTH 1131 0
DWIDTH 30 0
BBX 12 23 6 -5
BITMAP
FC00
0F00
07C0
03C0
03E0
01E0
01F0
01F0
01F0
01F0
01F0
01F0
01F0
01F0
01F0
01F0
01F0
01F0
01F0
01F0
01F0
01F0
01F0
ENDCHAR

STARTCHAR ldbracertbt
ENCODING 174
SWIDTH 1131 0
DWIDTH 30 0
BBX 12 24 6 -4
BITMAP
01F0
01F0
01F0
01F0
01F0
01F0
01F0
01F0
01F0
01F0
01F0
01F0
01F0
01F0
01F0
01F0
01F0
01F0
01F0
03E0
03E0
07C0
0F00
FC00
ENDCHAR

STARTCHAR ldbracelftmid
ENCODING 175
SWIDTH 1131 0
DWIDTH 30 0
BBX 11 25 7 -5
BITMAP
03E0
03E0
03E0
03E0
03E0
03E0
03E0
03E0
03E0
03E0
03C0
07C0
0E00
F800
0E00
0FC0
07C0
03E0
03E0
03E0
03E0
03E0
03E0
03E0
03E0
ENDCHAR

STARTCHAR ldbracertmid
ENCODING 176
SWIDTH 1131 0
DWIDTH 30 0
BBX 11 25 13 -5
BITMAP
F800
F800
F800
F800
F800
F800
F800
F800
F800
F800
7800
7C00
0E00
03E0
0E00
7E00
7C00
F800
F800
F800
F800
F800
F800
F800
F800
ENDCHAR

STARTCHAR ldsigmalfttp
ENCODING 177
SWIDTH 1131 0
DWIDTH 30 0
BBX 16 13 14 -5
BITMAP
FFFF
FFFF
3C00
1F00
0F80
07C0
03E0
00F0
007C
003E
001F
000F
0003
ENDCHAR

STARTCHAR ldsigmalftbt
ENCODING 178
SWIDTH 1131 0
DWIDTH 30 0
BBX 16 14 14 6
BITMAP
0003
000F
001F
003E
003C
0070
00E0
03E0
07C0
0F80
1F00
3C00
FFFF
FFFF
ENDCHAR

STARTCHAR ldbackslash
ENCODING 179
SWIDTH 1131 0
DWIDTH 30 0
BBX 30 25 0 -5
BITMAP
F0000000
F8000000
7C000000
3E000000
0F000000
07C00000
03E00000
01F00000
00F80000
003C0000
001F0000
000F8000
0007C000
0003E000
0000F000
00007C00
00003E00
00001F00
00000F80
000003C0
000001F0
000000F8
0000007C
0000003C
0000000C
ENDCHAR

STARTCHAR ldslash
ENCODING 180
SWIDTH 1131 0
DWIDTH 30 0
BBX 30 25 0 -5
BITMAP
0000003C
0000007C
000000F8
000001F0
000003C0
00000F80
00001F00
00003E00
00007C00
0000F000
0003E000
0007C000
000F8000
001F0000
003C0000
00F80000
01F00000
03E00000
07C00000
0F000000
3E000000
7C000000
F8000000
F0000000
C0000000
ENDCHAR

STARTCHAR ldsigmarttp
ENCODING 181
SWIDTH 1131 0
DWIDTH 30 0
BBX 30 7 0 1
BITMAP
FFFFFFFC
FFFFFFFC
0000007C
0000007C
0000007C
0000007C
0000007C
ENDCHAR

STARTCHAR ldsigmartbt
ENCODING 182
SWIDTH 1131 0
DWIDTH 30 0
BBX 30 6 0 6
BITMAP
0000007C
0000007C
0000007C
0000007C
FFFFFFFC
FFFFFFFC
ENDCHAR

STARTCHAR ldsigmamid
ENCODING 183
SWIDTH 1131 0
DWIDTH 30 0
BBX 16 25 0 -5
BITMAP
F000
F800
7C00
3E00
0F00
07C0
03E0
01F0
00F8
003C
001F
000F
000F
001F
003C
00F8
01F0
03E0
07C0
0F00
3E00
7C00
F800
F000
C000
ENDCHAR

STARTCHAR lessequal
ENCODING 188
SWIDTH 1131 0
DWIDTH 30 0
BBX 26 14 2 0
BITMAP
0000FFC0
000FFFC0
007F8000
07F00000
FF800000
FFF00000
07FF8000
003FFFC0
0000FFC0
00000000
00000000
00000000
FFFFFFC0
FFFFFFC0
ENDCHAR

STARTCHAR notequal
ENCODING 189
SWIDTH 1131 0
DWIDTH 30 0
BBX 26 12 2 1
BITMAP
00007000
0000F000
FFFFFFC0
FFFFFFC0
000F0000
000F0000
003C0000
003C0000
FFFFFFC0
FFFFFFC0
03C00000
03800000
ENDCHAR

STARTCHAR greaterequal
ENCODING 190
SWIDTH 1131 0
DWIDTH 30 0
BBX 26 14 2 0
BITMAP
FFC00000
FFFC0000
007F8000
0003F800
00007FC0
0003FFC0
007FF800
FFFF0000
FFC00000
00000000
00000000
00000000
FFFFFFC0
FFFFFFC0
ENDCHAR

STARTCHAR integral
ENCODING 191
SWIDTH 1131 0
DWIDTH 30 0
BBX 26 23 2 -4
BITMAP
0001FE00
000F8700
000F03C0
001F03C0
001F03C0
001F0000
001F0000
001F0000
001F0000
001F0000
001F0000
001F0000
001F0000
001F0000
001F0000
001F0000
001F0000
001F0000
F01F0000
F01F0000
F01E0000
383E0000
0FF00000
ENDCHAR

STARTCHAR therefore
ENCODING 192
SWIDTH 1131 0
DWIDTH 30 0
BBX 28 12 1 0
BITMAP
003FC000
007FE000
007FE000
003FC000
00000000
00000000
00000000
00000000
7FC03FE0
FFE07FF0
FFE07FF0
7FC03FE0
ENDCHAR

STARTCHAR proportional
ENCODING 193
SWIDTH 1131 0
DWIDTH 30 0
BBX 28 9 1 3
BITMAP
0FF03FF0
7FFEFFF0
FC3FF800
F81FE000
F81FE000
F81FE000
FC3FF800
7FFEFFF0
0FF01FF0
ENDCHAR

STARTCHAR infinity
ENCODING 194
SWIDTH 1131 0
DWIDTH 30 0
BBX 27 9 1 3
BITMAP
0FE07E00
7FF9FF80
F87FC3E0
F03F81E0
F03F81E0
F03F81E0
F87FC3E0
7FF9FF80
0FE07E00
ENDCHAR

STARTCHAR divide
ENCODING 195
SWIDTH 1131 0
DWIDTH 30 0
BBX 26 12 2 1
BITMAP
003F0000
003F0000
003F0000
00000000
00000000
FFFFFFC0
FFFFFFC0
00000000
00000000
003F0000
003F0000
003F0000
ENDCHAR

STARTCHAR Delta
ENCODING 196
SWIDTH 1131 0
DWIDTH 30 0
BBX 28 15 1 0
BITMAP
00070000
000F8000
001FC000
003FE000
007FF800
01FEF800
03F87C00
07F03E00
0FE01F00
1FC01F80
1F800780
7E0003E0
FE0001F0
FC0001F0
FFFFFFF0
ENDCHAR

STARTCHAR gradient
ENCODING 197
SWIDTH 1131 0
DWIDTH 30 0
BBX 28 15 1 0
BITMAP
FFFFFFF0
FFFFFFF0
FE0001F0
7E0003E0
1F800780
1FC01F80
0FE01F00
07F03E00
03F87C00
01FEF800
007FF800
003FE000
001FC000
000F8000
00070000
ENDCHAR

STARTCHAR Phi
ENCODING 198
SWIDTH 1131 0
DWIDTH 30 0
BBX 24 15 2 0
BITMAP
07FFF0
003E00
003E00
0FFFF8
3C3E3E
F83E0F
F83E0F
F83E0F
F83E0F
F83E0F
3C3E3E
0FFFF8
003E00
003E00
07FFF0
ENDCHAR

STARTCHAR Gamma
ENCODING 199
SWIDTH 1131 0
DWIDTH 30 0
BBX 24 15 4 0
BITMAP
FFFFFF
03C01F
03C01F
03C01F
03C01F
03C000
03C000
03C000
03C000
03C000
03C000
03C000
03C000
03C000
FFFFC0
ENDCHAR

STARTCHAR similar
ENCODING 200
SWIDTH 1131 0
DWIDTH 30 0
BBX 22 6 4 4
BITMAP
0F801C
3FF01C
7FFC3C
F03FF8
E00FF0
E003C0
ENDCHAR

STARTCHAR approxequal
ENCODING 201
SWIDTH 1131 0
DWIDTH 30 0
BBX 22 11 4 1
BITMAP
0F801C
3FF01C
7FFC3C
F07FF8
E00FF0
E003C0
000000
000000
000000
FFFFFC
FFFFFC
ENDCHAR

STARTCHAR Theta
ENCODING 202
SWIDTH 1131 0
DWIDTH 30 0
BBX 24 15 2 0
BITMAP
07FFF0
1F007C
3C003E
3C003E
F8000F
F8C18F
F8C18F
F8FF8F
F8C18F
F8C18F
F8000F
3C003E
3C003E
1F007C
07FFF0
ENDCHAR

STARTCHAR multiply
ENCODING 203
SWIDTH 1131 0
DWIDTH 30 0
BBX 20 11 5 1
BITMAP
7801E0
FC03F0
7F0FE0
1F9F80
03FC00
03FC00
1FFF80
3F9FC0
FE07F0
F801F0
600060
ENDCHAR

STARTCHAR Lambda
ENCODING 204
SWIDTH 1131 0
DWIDTH 30 0
BBX 28 15 1 0
BITMAP
00070000
000F8000
001FC000
003FC000
007FE000
01FEF800
03F87C00
03F03E00
07E01E00
0FC00700
1F800780
7F8003E0
7E0001E0
FC0001F0
FF8007F0
ENDCHAR

STARTCHAR arrowdblboth
ENCODING 205
SWIDTH 1131 0
DWIDTH 30 0
BBX 28 13 1 1
BITMAP
00606000
00606000
03C03C00
0FFFFF00
1FFFFF80
7C0003E0
F80001F0
7C0003E0
1FFFFF80
0FFFFF00
03C03C00
00606000
00606000
ENDCHAR

STARTCHAR arrowdblright
ENCODING 206
SWIDTH 1131 0
DWIDTH 30 0
BBX 27 13 2 1
BITMAP
0000C000
0000C000
00007800
FFFFFE00
FFFFFF00
000007C0
000003E0
000007C0
FFFFFF00
FFFFFE00
00007800
0000C000
0000C000
ENDCHAR

STARTCHAR equivalence
ENCODING 207
SWIDTH 1131 0
DWIDTH 30 0
BBX 22 12 4 1
BITMAP
FFFFFC
FFFFFC
000000
000000
000000
FFFFFC
FFFFFC
000000
000000
000000
FFFFFC
FFFFFC
ENDCHAR

STARTCHAR Pi
ENCODING 208
SWIDTH 1131 0
DWIDTH 30 0
BBX 26 15 2 0
BITMAP
FFFFFFC0
0F807C00
0F807C00
0F807C00
0F807C00
0F807C00
0F807C00
0F807C00
0F807C00
0F807C00
0F807C00
0F807C00
0F807C00
0F807C00
FFF1FFC0
ENDCHAR

STARTCHAR Psi
ENCODING 209
SWIDTH 1131 0
DWIDTH 30 0
BBX 24 15 2 0
BITMAP
07FFF0
003E00
003E00
F83E0F
F83E0F
F83E0F
F83E0F
F83E0F
3C3E3E
0FFFF8
003E00
003E00
003E00
003E00
07FFF0
ENDCHAR

STARTCHAR Sigma
ENCODING 211
SWIDTH 1131 0
DWIDTH 30 0
BBX 24 15 2 0
BITMAP
FFFFFF
1F800F
0FC00F
03F00F
00FC00
003F00
001F80
001F80
003F00
00FE00
03FC0F
07E00F
1FC00F
3F800F
FFFFFF
ENDCHAR

STARTCHAR radical
ENCODING 214
SWIDTH 1131 0
DWIDTH 30 0
BBX 29 20 1 -3
BITMAP
00000078
000000F8
000001F8
000001E0
00000380
00000780
FC000700
7C001E00
1E003E00
1E003C00
1E007800
0F80F800
0F80E000
0781C000
07C7C000
07C78000
03FF0000
03FF0000
01FE0000
01FE0000
ENDCHAR

STARTCHAR Omega
ENCODING 215
SWIDTH 1131 0
DWIDTH 30 0
BBX 26 15 2 0
BITMAP
07FFF800
1F807E00
3F003F00
3C000F00
FC000FC0
FC000FC0
FC000FC0
3C000F00
3F003F00
1F807E00
07C0F800
03C0F000
F3C0F3C0
F3C0F3C0
FFC0FFC0
ENDCHAR

STARTCHAR Xi
ENCODING 216
SWIDTH 1131 0
DWIDTH 30 0
BBX 24 15 2 0
BITMAP
FFFFFF
F8000F
F8000F
F8000F
000000
0F0078
0F0078
0FFFF8
0F0078
0F0078
000000
F8000F
F8000F
F8000F
FFFFFF
ENDCHAR

STARTCHAR Upsilon1
ENCODING 217
SWIDTH 1131 0
DWIDTH 30 0
BBX 27 15 1 0
BITMAP
FC0007E0
1E001F00
1F803F00
0FC07E00
07E0FC00
03F1F800
01FFE000
007FC000
003F8000
001F0000
001F0000
001F0000
001F0000
001F0000
03FFF800
ENDCHAR

STARTCHAR propersubset
ENCODING 218
SWIDTH 1131 0
DWIDTH 30 0
BBX 24 15 2 0
BITMAP
03FFFF
0FFFFF
1FFFFF
3C0000
380000
F80000
F80000
F80000
F80000
F80000
380000
3C0000
1FFFFF
0FFFFF
03FFFF
ENDCHAR

STARTCHAR propersuperset
ENCODING 219
SWIDTH 1131 0
DWIDTH 30 0
BBX 24 15 2 0
BITMAP
FFFFC0
FFFFF8
FFFFFC
00003E
00000E
00000F
00000F
00000F
00000F
00000F
00000E
00003E
FFFFFC
FFFFF8
FFFFC0
ENDCHAR

STARTCHAR intersection
ENCODING 220
SWIDTH 1131 0
DWIDTH 30 0
BBX 24 15 2 0
BITMAP
03FFC0
1FFFFC
3FFFFE
3C003E
F8000F
F8000F
F8000F
F8000F
F8000F
F8000F
F8000F
F8000F
F8000F
F8000F
F8000F
ENDCHAR

STARTCHAR union
ENCODING 221
SWIDTH 1131 0
DWIDTH 30 0
BBX 24 15 2 0
BITMAP
F8000F
F8000F
F8000F
F8000F
F8000F
F8000F
F8000F
F8000F
F8000F
F8000F
F8000F
3C003E
3FFFFE
1FFFFC
03FFC0
ENDCHAR

STARTCHAR logicaland
ENCODING 222
SWIDTH 1131 0
DWIDTH 30 0
BBX 26 12 2 0
BITMAP
000E0000
001F0000
003F8000
007FC000
00FFF000
03F1F800
07E0F800
0FC07C00
0F803E00
1F003F00
3F000F00
FC0007C0
ENDCHAR

STARTCHAR logicalor
ENCODING 223
SWIDTH 1131 0
DWIDTH 30 0
BBX 26 12 2 0
BITMAP
FC0007C0
3F000F00
1F003F00
0F803E00
0FC07C00
07E0F800
03F1F800
00FFF000
007FC000
003F8000
001F0000
000E0000
ENDCHAR

STARTCHAR logicalnot
ENCODING 224
SWIDTH 1131 0
DWIDTH 30 0
BBX 22 6 4 3
BITMAP
FFFFFC
FFFFFC
00003C
00003C
00003C
00003C
ENDCHAR

STARTCHAR alpha
ENCODING 225
SWIDTH 1131 0
DWIDTH 30 0
BBX 27 12 2 0
BITMAP
03FF03E0
0F81C7C0
3C007F00
3C003E00
F8003E00
F8003C00
F8007C00
F8007C00
FC00FC00
3C01BC20
3F0F3E20
0FFC0FC0
ENDCHAR

STARTCHAR beta
ENCODING 226
SWIDTH 1131 0
DWIDTH 30 0
BBX 28 21 1 -4
BITMAP
000FFF80
003F03E0
007801F0
01F801F0
01F001F0
03E003F0
03E007E0
07C1FF00
07C01F00
0FC003E0
0F8003F0
0F8001F0
1F8001F0
1F8001F0
1FC003E0
7C701FE0
7C3FFF00
7C000000
F8000000
F8000000
F8000000
ENDCHAR

STARTCHAR chi
ENCODING 227
SWIDTH 1131 0
DWIDTH 30 0
BBX 28 17 1 -5
BITMAP
07F001F0
01F803E0
00780780
007E1F00
003E3C00
001F7800
001FE000
000FC000
000FC000
001FE000
003FE000
0070F800
03E07C00
07C07C00
0F803E00
1E003E00
FE001F80
ENDCHAR

STARTCHAR delta
ENCODING 228
SWIDTH 1131 0
DWIDTH 30 0
BBX 22 17 4 0
BITMAP
007FF8
01F800
03C000
03C000
03F000
01FC00
00FFC0
0FFFE0
3E03F8
7C01F8
FC00FC
FC00FC
FC00FC
FC00FC
7C00F8
3E01F8
0FFFC0
ENDCHAR

STARTCHAR epsilon
ENCODING 229
SWIDTH 1131 0
DWIDTH 30 0
BBX 22 12 4 0
BITMAP
03FFFC
1F8000
3E0000
7E0000
7C0000
FFFFF0
FC0000
FC0000
7C0000
7E0000
3F0000
0FFFFC
ENDCHAR

STARTCHAR phi
ENCODING 230
SWIDTH 1131 0
DWIDTH 30 0
BBX 28 22 1 -5
BITMAP
0000E000
0000E000
0000E000
0001C000
0001C000
007FFF00
07E1C7E0
1F8783E0
7E0783F0
7E0F83F0
FC0F03F0
FC0F03F0
FC0F07E0
FC1F07E0
7C1E1F80
1E1E7F00
07FFF800
00380000
00380000
00780000
00700000
00700000
ENDCHAR

STARTCHAR gamma
ENCODING 231
SWIDTH 1131 0
DWIDTH 30 0
BBX 27 17 2 -5
BITMAP
FC0007E0
3F000FC0
1F003F00
0F807E00
07C0FC00
03C1F800
03E1F000
00F3C000
00FF8000
007F0000
007E0000
00FC0000
03F00000
07E00000
0FC00000
1F800000
3F000000
ENDCHAR

STARTCHAR eta
ENCODING 232
SWIDTH 1131 0
DWIDTH 30 0
BBX 26 17 2 -5
BITMAP
3F8FFF00
03FE0FC0
07E007C0
07C007C0
07C007C0
0F800F00
0F800F00
1F000F00
1F003E00
3F003E00
3C007E00
FC007C00
00007C00
0000FC00
0000F800
0001F800
0001F800
ENDCHAR

STARTCHAR iota
ENCODING 233
SWIDTH 1131 0
DWIDTH 30 0
BBX 19 12 6 0
BITMAP
FFE000
07E000
07E000
07C000
0FC000
0FC000
0F0000
3F0000
3F0000
3F07E0
0FC7E0
03FFC0
ENDCHAR

STARTCHAR theta
ENCODING 234
SWIDTH 1131 0
DWIDTH 30 0
BBX 22 17 4 0
BITMAP
01FFC0
0F80F0
1F0038
3E0038
3E003C
7C003C
7C003C
FC003C
FFFFFC
F000FC
F000FC
F000F8
F001F8
7001F0
7003E0
3C07C0
0FFE00
ENDCHAR

STARTCHAR kappa
ENCODING 235
SWIDTH 1131 0
DWIDTH 30 0
BBX 26 12 2 0
BITMAP
FFC00FC0
0FC07E00
0FC1F800
1F81F000
1F8F8000
1FFF0000
1F1F8000
3F0FC000
3C03F000
3C01F800
FC01FC00
FC00FF00
ENDCHAR

STARTCHAR lambda
ENCODING 236
SWIDTH 1131 0
DWIDTH 30 0
BBX 28 17 1 0
BITMAP
007F0000
001F0000
001F8000
000F8000
000FC000
000FC000
001FE000
001FF800
003EF800
0078FC00
01F07C00
03E07E00
07C03E00
0F803F00
1E001F80
7C001F80
FC001FF0
ENDCHAR

STARTCHAR nu
ENCODING 238
SWIDTH 1131 0
DWIDTH 30 0
BBX 24 12 4 0
BITMAP
FF801F
0F801F
0F801F
0F803F
0F803C
0F80F8
0F80F8
0F81F0
0F83E0
0F8F00
0FFE00
0FF800
ENDCHAR

STARTCHAR partialdiff
ENCODING 239
SWIDTH 1131 0
DWIDTH 30 0
BBX 22 15 4 0
BITMAP
0FFF00
0007E0
0001F0
0000F8
0000F8
0FFEFC
3E03FC
7E01FC
FC00FC
FC00FC
FC00FC
FC00FC
7E00F8
3E01F8
0FFFE0
ENDCHAR

STARTCHAR pi
ENCODING 240
SWIDTH 1131 0
DWIDTH 30 0
BBX 25 12 4 0
BITMAP
FFFFFF80
1F01F000
1F01F000
1E01F000
3E03E000
3E03E000
3C03E000
7C03C000
7C07C000
7007C000
F007C000
F003F800
ENDCHAR

STARTCHAR psi
ENCODING 241
SWIDTH 1131 0
DWIDTH 30 0
BBX 28 21 1 -5
BITMAP
0001C000
0001C000
0001C000
0001C000
FF8781F0
1F8781F0
1E0781F0
1E0781F0
7E0781F0
7C0F03E0
7C0F03E0
FC0F03E0
FC0F0780
FC1E0700
7E1E3F00
0FFFFC00
001E0000
00380000
00380000
00380000
00380000
ENDCHAR

STARTCHAR rho
ENCODING 242
SWIDTH 1131 0
DWIDTH 30 0
BBX 28 17 1 -5
BITMAP
007FFE00
03F01F80
07C003E0
07C003E0
0FC001F0
0F8001F0
0F8001F0
1F8003F0
1F8003E0
1FC00780
1FF03F00
7E1FFC00
7E000000
7C000000
7C000000
FC000000
FC000000
ENDCHAR

STARTCHAR sigma
ENCODING 243
SWIDTH 1131 0
DWIDTH 30 0
BBX 28 12 1 0
BITMAP
01FFFFF0
0FC03E00
7E001F00
7E001F00
FC001F80
FC001F80
FC001F80
FC001F00
FC003F00
7C003E00
1E00F800
07FFC000
ENDCHAR

STARTCHAR tau
ENCODING 244
SWIDTH 1131 0
DWIDTH 30 0
BBX 26 12 2 0
BITMAP
FFFFFFC0
007E0000
007E0000
007C0000
00FC0000
00FC0000
00FC0000
03F00000
03F00000
03F007C0
00FC07C0
003FFE00
ENDCHAR

STARTCHAR florin
ENCODING 246
SWIDTH 1131 0
DWIDTH 30 0
BBX 26 19 2 -4
BITMAP
00003FC0
0000F800
0001F000
0001F000
0003C000
0003C000
07FFFF00
000F8000
001F0000
001F0000
001F0000
003E0000
003E0000
003E0000
007C0000
007C0000
00F00000
03F00000
FF800000
ENDCHAR

STARTCHAR omega
ENCODING 247
SWIDTH 1131 0
DWIDTH 30 0
BBX 27 12 2 0
BITMAP
1F0003E0
1F0003E0
3C0303E0
3C0303E0
3C0303E0
F80F03E0
F80E03C0
F80E07C0
F81E07C0
F81E0700
387F0F00
1FC1FE00
ENDCHAR

STARTCHAR xi
ENCODING 248
SWIDTH 1131 0
DWIDTH 30 0
BBX 26 22 2 -5
BITMAP
0FFFFFC0
003F0000
00FC0000
00FC0000
03F00000
03F00000
03F00000
00FFF800
00FC0000
0FC00000
3F000000
FC000000
FC000000
FC000000
FC000000
3F000000
0FFFFC00
0000FE00
00007E00
00007E00
0000FC00
000FC000
ENDCHAR

STARTCHAR upsilon
ENCODING 249
SWIDTH 1131 0
DWIDTH 30 0
BBX 24 12 4 0
BITMAP
3F001F
7E001F
7C003F
FC003F
FC003C
F000FC
F000FC
F001F8
F001F8
F003F0
7C0FE0
3FFF00
ENDCHAR

STARTCHAR zeta
ENCODING 250
SWIDTH 1131 0
DWIDTH 30 0
BBX 26 22 2 -5
BITMAP
07FFFFC0
0000FC00
0001F800
000FC000
003F0000
007C0000
03F00000
0FC00000
1F800000
3F000000
FF000000
FC000000
FC000000
FC000000
FC000000
3F000000
0FFFFF00
00000FC0
000007C0
000007C0
00000F00
0000FC00
ENDCHAR

STARTCHAR arrowleft
ENCODING 251
SWIDTH 1131 0
DWIDTH 30 0
BBX 28 10 1 2
BITMAP
007E0000
03E00000
1F800000
1F800000
FFFFFFF0
FFFFFFF0
1F800000
1F800000
03E00000
007E0000
ENDCHAR

STARTCHAR arrowup
ENCODING 252
SWIDTH 1131 0
DWIDTH 30 0
BBX 16 19 6 -2
BITMAP
0100
03C0
0FF0
0FF0
7BDC
F3CF
83C3
03C0
03C0
03C0
03C0
03C0
03C0
03C0
03C0
03C0
03C0
03C0
03C0
ENDCHAR

STARTCHAR arrowright
ENCODING 253
SWIDTH 1131 0
DWIDTH 30 0
BBX 27 10 1 2
BITMAP
003F0000
01F00000
0FC00000
0FC00000
FFFFFFE0
FFFFFFE0
0FC00000
0FC00000
01F00000
003F0000
ENDCHAR

STARTCHAR arrowdown
ENCODING 254
SWIDTH 1131 0
DWIDTH 30 0
BBX 16 19 7 -2
BITMAP
03C0
03C0
03C0
03C0
03C0
03C0
03C0
03C0
03C0
03C0
03C0
03C0
83C1
F3CF
7BDE
0FF0
0FF0
03C0
0180
ENDCHAR
ENDFONT
